/* XPM */
static const char *const run_swat_xpm[] = {
/* columns rows colors chars-per-pixel */
"32 32 4 2",
"   c None",
"o  c #A08020",
"R  c #FF0000",
".  c #C0C0C0",
/* pixels */
"                                                                ",
"                                                                ",
"                                                                ",
"                                                                ",
"                                                                ",
"                                                                ",
"      . . . . . . . . . . . . . . . . . . . . . . . . .         ",
"      . . . . . . . . . . . . . . . . . . . . . . . . .         ",
"      . . . . . . . . . . . . . . . . . . . . . . . . .         ",
"      . . . . . . . . . . . . . . . . . . . . . . . . .         ",
"      . . . . . . . . . . . . . . . . . . . . . . . . .         ",
"      . . . . . . . . . . . . . . . . . . . . . . . . .         ",
"      . . . . . . . . . . . . . . . . . . . . . . . . .         ",
"      . . . . . . . . . . . . . . . . . . . . . . . . .         ",
"      . . . . . . . . . . . . . . . . . . . . . . . . .         ",
"      . . . . . . . . . . . . . . . . . . . . . . . . . R       ",
"      . . . . . . . . . . . . . . . . . . . . . . . R R         ",
"      . . . . . . . . . . . . . . . . . . . . . R R R R         ",
"      . . . . . . . . . . . . . . . . . . . R R R R R R         ",
"      . . . . . . . . . . . . . . . . . . . . . R R R R         ",
"      . . . . . . . . . . . . . . . . . . . . R   R R           ",
"      . . . . . . . . . . . . . . . . . . . R                   ",
"      . . . . . . . . . . . . . . . . . . R                     ",
"      . . . . . . . . . . . . . . . . . R                       ",
"      . . . . . . . . . . . . . . . . R                         ",
"      . . . . . . . . . . . . . . . R                           ",
"        R R R R R R R R R R R R R R                             ",
"                                                                ",
"                                                                ",
"                                                                ",
"                                                                ",
"                                                                "
};
